<svg width="40" height="40" viewBox="0 0 40 40" fill="none" xmlns="http://www.w3.org/2000/svg">
<path d="M1.74846e-06 20C2.7141e-06 8.9543 8.95431 -2.7141e-06 20 -1.74846e-06C31.0457 -7.8281e-07 40 8.9543 40 20C40 31.0457 31.0457 40 20 40C8.9543 40 7.8281e-07 31.0457 1.74846e-06 20Z" fill="#957979"/>
<path d="M13.1616 18.9393C12.5758 19.5251 12.5758 20.4749 13.1616 21.0607L22.7075 30.6066C23.2933 31.1924 24.243 31.1924 24.8288 30.6066C25.4146 30.0208 25.4146 29.0711 24.8288 28.4853L16.3435 20L24.8288 11.5147C25.4146 10.9289 25.4146 9.97919 24.8288 9.39341C24.243 8.80762 23.2933 8.80762 22.7075 9.3934L13.1616 18.9393ZM16 18.5L14.2222 18.5L14.2222 21.5L16 21.5L16 18.5Z" fill="white"/>
</svg>
