<svg width="40" height="40" viewBox="0 0 40 40" fill="none" xmlns="http://www.w3.org/2000/svg">
<path d="M40 20C40 31.0457 31.0457 40 20 40C8.9543 40 0 31.0457 0 20C0 8.9543 8.9543 0 20 0C31.0457 0 40 8.9543 40 20Z" fill="#957979"/>
<path d="M26.8384 21.0607C27.4242 20.4749 27.4242 19.5251 26.8384 18.9393L17.2925 9.39339C16.7067 8.80761 15.757 8.8076 15.1712 9.39339C14.5854 9.97918 14.5854 10.9289 15.1712 11.5147L23.6565 20L15.1712 28.4853C14.5854 29.0711 14.5854 30.0208 15.1712 30.6066C15.757 31.1924 16.7067 31.1924 17.2925 30.6066L26.8384 21.0607ZM24 21.5L25.7778 21.5L25.7778 18.5L24 18.5L24 21.5Z" fill="white"/>
</svg>
