<svg width="35" height="35" viewBox="0 0 35 35" fill="none" xmlns="http://www.w3.org/2000/svg">
<circle cx="17.5" cy="17.5" r="17.5" fill="#4E4E4E"/>
<path d="M25.1 22.3314H23.2V14.6282L17.5 17.9296L11.8 14.6282V22.3314H9.9V11.7671H11.04L17.5 15.5086L23.96 11.7671H25.1M25.1 10.0063H9.9C8.8455 10.0063 8 10.7899 8 11.7671V22.3314C8 22.7984 8.20018 23.2462 8.5565 23.5764C8.91282 23.9066 9.39609 24.0921 9.9 24.0921H25.1C25.6039 24.0921 26.0872 23.9066 26.4435 23.5764C26.7998 23.2462 27 22.7984 27 22.3314V11.7671C27 11.3001 26.7998 10.8523 26.4435 10.5221C26.0872 10.1919 25.6039 10.0063 25.1 10.0063Z" fill="white"/>
</svg>
