<svg width="35" height="35" viewBox="0 0 35 35" fill="none" xmlns="http://www.w3.org/2000/svg">
<circle cx="17.5" cy="17.5" r="17.5" fill="#4E4E4E"/>
<path d="M17.4977 14.7002C15.9369 14.7002 14.6632 15.9817 14.6632 17.5521C14.6632 19.1225 15.9369 20.404 17.4977 20.404C19.0585 20.404 20.3322 19.1225 20.3322 17.5521C20.3322 15.9817 19.0585 14.7002 17.4977 14.7002ZM25.9991 17.5521C25.9991 16.3711 26.0097 15.2008 25.9438 14.022C25.8778 12.6527 25.5674 11.4375 24.5722 10.4362C23.575 9.43281 22.3693 9.12259 21.0084 9.05626C19.8346 8.98994 18.6715 9.00064 17.4998 9.00064C16.3261 9.00064 15.1629 8.98994 13.9913 9.05626C12.6304 9.12259 11.4226 9.43495 10.4274 10.4362C9.43016 11.4396 9.12184 12.6527 9.05592 14.022C8.99 15.203 9.00063 16.3732 9.00063 17.5521C9.00063 18.7309 8.99 19.9034 9.05592 21.0822C9.12184 22.4515 9.43229 23.6667 10.4274 24.668C11.4247 25.6714 12.6304 25.9816 13.9913 26.0479C15.1651 26.1142 16.3282 26.1035 17.4998 26.1035C18.6736 26.1035 19.8368 26.1142 21.0084 26.0479C22.3693 25.9816 23.5771 25.6692 24.5722 24.668C25.5695 23.6645 25.8778 22.4515 25.9438 21.0822C26.0118 19.9034 25.9991 18.7331 25.9991 17.5521ZM17.4977 21.9401C15.0843 21.9401 13.1365 19.9804 13.1365 17.5521C13.1365 15.1238 15.0843 13.164 17.4977 13.164C19.9112 13.164 21.859 15.1238 21.859 17.5521C21.859 19.9804 19.9112 21.9401 17.4977 21.9401ZM22.0376 14.0091C21.4741 14.0091 21.019 13.5513 21.019 12.9843C21.019 12.4174 21.4741 11.9595 22.0376 11.9595C22.6011 11.9595 23.0561 12.4174 23.0561 12.9843C23.0563 13.119 23.0301 13.2523 22.9789 13.3767C22.9278 13.5011 22.8528 13.6142 22.7582 13.7093C22.6636 13.8045 22.5512 13.88 22.4276 13.9315C22.3039 13.9829 22.1714 14.0093 22.0376 14.0091Z" fill="white"/>
</svg>
